<svg width="12" height="12" viewBox="0 0 12 12" fill="none" xmlns="http://www.w3.org/2000/svg">
<path d="M5.77072 0.323975C2.59581 0.323975 0.0127563 2.90703 0.0127563 6.08194C0.0127563 9.25684 2.59581 11.8399 5.77072 11.8399C8.94563 11.8399 11.5287 9.25684 11.5287 6.08194C11.5287 2.90703 8.94563 0.323975 5.77072 0.323975ZM8.6497 4.16262L4.81106 8.96092C4.77025 9.00953 4.86837 8.93365 4.81106 8.96092C4.75374 8.98819 4.87452 8.95991 4.81106 8.96092C4.74898 8.96089 4.86776 8.98619 4.81106 8.96092C4.75435 8.93564 4.85257 9.00707 4.81106 8.96092L2.89174 7.0416C2.85124 6.99865 2.91239 7.0969 2.89174 7.0416C2.87108 6.9863 2.88932 6.14092 2.89174 6.08194C2.86662 6.13536 2.89416 6.02296 2.89174 6.08194C2.84786 6.12142 2.91686 6.02852 2.89174 6.08194C2.83597 6.1013 2.93562 6.04245 2.89174 6.08194C2.83283 6.07815 2.9475 6.06257 2.89174 6.08194C2.83891 6.05559 2.95065 6.08573 2.89174 6.08194C2.94456 6.10829 3.81294 6.03715 3.8514 6.08194L4.81106 8.00126L7.69004 3.20296C7.76616 3.11495 8.5337 3.2122 8.6497 3.20296C8.5606 3.12811 8.76569 3.19371 8.6497 3.20296C8.7388 3.2778 8.63878 4.04677 8.6497 4.16262C8.72325 4.07245 8.66062 4.27846 8.6497 4.16262Z" fill="#1C5BFF"/>
</svg>
