<svg width="39" height="38" viewBox="0 0 39 38" fill="none" xmlns="http://www.w3.org/2000/svg">
<g filter="url(#filter0_d_336_1197)">
<rect x="4.96606" y="0.0339355" width="29.7495" height="29.7495" rx="5.86509" fill="white" fill-opacity="0.4" shape-rendering="crispEdges"/>
<path d="M20.4278 8.77809H18.5084C16.1017 8.77222 14.6864 11.1613 14.6698 13.5764V15.4957C14.6698 16.0755 14.0203 16.9329 13.7101 17.415V18.3747C13.3956 18.862 14.1048 19.3344 14.6698 19.3344H19.4681H24.2664C24.8314 19.3344 25.5399 18.862 25.2261 18.3747V17.415C24.9166 16.9329 24.2664 16.0755 24.2664 15.4957V13.5764C24.2376 11.1605 22.8345 8.78396 20.4278 8.77809ZM21.3874 19.3344C21.3874 19.9182 21.7924 19.8811 21.3874 20.294C20.9825 20.7069 20.0408 21.2537 19.4681 21.2537C18.8954 21.2537 17.9537 20.7069 17.5488 20.294C17.1439 19.8811 17.5488 19.9182 17.5488 19.3344" fill="white"/>
<path d="M21.3874 19.3344C21.3874 19.9182 21.7924 19.8811 21.3874 20.294C20.9825 20.7069 20.0408 21.2537 19.4681 21.2537C18.8954 21.2537 17.9537 20.7069 17.5488 20.294C17.1439 19.8811 17.5488 19.9182 17.5488 19.3344M20.4278 8.77809H18.5084C16.1017 8.77222 14.6864 11.1613 14.6698 13.5764V15.4957C14.6698 16.0755 14.0203 16.9329 13.7101 17.415V18.3747C13.3956 18.862 14.1048 19.3344 14.6698 19.3344H19.4681H24.2664C24.8314 19.3344 25.5399 18.862 25.2261 18.3747V17.415C24.9166 16.9329 24.2664 16.0755 24.2664 15.4957V13.5764C24.2376 11.1605 22.8345 8.78396 20.4278 8.77809Z" stroke="white" stroke-width="1.46627" stroke-linecap="round" stroke-linejoin="round"/>
<path d="M20.4277 6.8586C20.8095 6.8586 21.1174 6.61864 21.3874 6.8586C21.6573 7.09856 21.3874 7.47891 21.3874 7.81826V8.77792H18.5084V7.81826C18.5084 7.47891 18.2385 7.09856 18.5084 6.8586C18.7784 6.61864 20.046 6.8586 20.4277 6.8586Z" fill="white"/>
<path d="M20.4277 6.8586C20.8095 6.8586 21.1174 6.61864 21.3874 6.8586C21.6573 7.09856 21.3874 7.47891 21.3874 7.81826V8.77792H18.5084V7.81826C18.5084 7.47891 18.2385 7.09856 18.5084 6.8586C18.7784 6.61864 20.046 6.8586 20.4277 6.8586Z" stroke="white" stroke-width="1.46627" stroke-linecap="round" stroke-linejoin="round"/>
<circle cx="25.1189" cy="9.63063" r="3.83864" fill="#FF4141"/>
</g>
<defs>
<filter id="filter0_d_336_1197" x="0.966064" y="0.0339355" width="37.7495" height="37.7495" filterUnits="userSpaceOnUse" color-interpolation-filters="sRGB">
<feFlood flood-opacity="0" result="BackgroundImageFix"/>
<feColorMatrix in="SourceAlpha" type="matrix" values="0 0 0 0 0 0 0 0 0 0 0 0 0 0 0 0 0 0 127 0" result="hardAlpha"/>
<feOffset dy="4"/>
<feGaussianBlur stdDeviation="2"/>
<feComposite in2="hardAlpha" operator="out"/>
<feColorMatrix type="matrix" values="0 0 0 0 0 0 0 0 0 0 0 0 0 0 0 0 0 0 0.25 0"/>
<feBlend mode="normal" in2="BackgroundImageFix" result="effect1_dropShadow_336_1197"/>
<feBlend mode="normal" in="SourceGraphic" in2="effect1_dropShadow_336_1197" result="shape"/>
</filter>
</defs>
</svg>
