<svg width="15" height="16" viewBox="0 0 15 16" fill="none" xmlns="http://www.w3.org/2000/svg">
<path d="M14.1146 12.9255V8.12717C14.1147 7.72753 14.263 7.53473 14.1146 7.16751C13.9663 6.80028 13.4276 6.48309 13.155 6.20785L8.35669 1.40954C8.09907 1.14945 8.71203 1.40954 8.35669 1.40954C8.00135 1.40954 7.65465 1.14945 7.39703 1.40954L2.59873 6.20785C2.3261 6.48309 1.78741 6.80028 1.63907 7.16751C1.49072 7.53473 1.63907 7.72753 1.63907 8.12717V12.9255C1.63907 13.3162 1.37911 14.5685 1.63907 14.8448C1.89902 15.1211 2.23109 14.8448 2.59873 14.8448H13.155C13.5226 14.8448 13.8547 15.1211 14.1146 14.8448C14.3746 14.5685 14.1146 13.3162 14.1146 12.9255Z" stroke="#787878" stroke-width="1.46627" stroke-linecap="round" stroke-linejoin="round"/>
</svg>
