<svg width="15" height="16" viewBox="0 0 15 16" fill="none" xmlns="http://www.w3.org/2000/svg">
<path d="M8.42776 2.77809H6.50844C4.10166 2.77222 2.68635 5.16127 2.6698 7.57639V9.49571C2.6698 10.0755 2.02034 10.9329 1.71014 11.415V12.3747C1.39562 12.862 2.10481 13.3344 2.6698 13.3344H7.4681H12.2664C12.8314 13.3344 13.5399 12.862 13.2261 12.3747V11.415C12.9166 10.9329 12.2664 10.0755 12.2664 9.49571V7.57639C12.2376 5.16053 10.8345 2.78396 8.42776 2.77809ZM9.38742 13.3344C9.38742 13.9182 9.79235 13.8811 9.38742 14.294C8.98249 14.7069 8.04076 15.2537 7.4681 15.2537C6.89545 15.2537 5.95371 14.7069 5.54878 14.294C5.14385 13.8811 5.54878 13.9182 5.54878 13.3344" fill="white"/>
<path d="M9.38742 13.3344C9.38742 13.9182 9.79235 13.8811 9.38742 14.294C8.98249 14.7069 8.04076 15.2537 7.4681 15.2537C6.89545 15.2537 5.95371 14.7069 5.54878 14.294C5.14385 13.8811 5.54878 13.9182 5.54878 13.3344M8.42776 2.77809H6.50844C4.10166 2.77222 2.68635 5.16127 2.6698 7.57639V9.49571C2.6698 10.0755 2.02034 10.9329 1.71014 11.415V12.3747C1.39562 12.862 2.10481 13.3344 2.6698 13.3344H7.4681H12.2664C12.8314 13.3344 13.5399 12.862 13.2261 12.3747V11.415C12.9166 10.9329 12.2664 10.0755 12.2664 9.49571V7.57639C12.2376 5.16053 10.8345 2.78396 8.42776 2.77809Z" stroke="white" stroke-width="1.46627" stroke-linecap="round" stroke-linejoin="round"/>
<path d="M8.42773 0.858603C8.80951 0.858603 9.11743 0.618641 9.38739 0.858603C9.65735 1.09856 9.38739 1.47891 9.38739 1.81826V2.77792H6.50841V1.81826C6.50841 1.47891 6.23845 1.09856 6.50841 0.858603C6.77837 0.618641 8.04595 0.858603 8.42773 0.858603Z" fill="white"/>
<path d="M8.42773 0.858603C8.80951 0.858603 9.11743 0.618641 9.38739 0.858603C9.65735 1.09856 9.38739 1.47891 9.38739 1.81826V2.77792H6.50841V1.81826C6.50841 1.47891 6.23845 1.09856 6.50841 0.858603C6.77837 0.618641 8.04595 0.858603 8.42773 0.858603Z" stroke="white" stroke-width="1.46627" stroke-linecap="round" stroke-linejoin="round"/>
</svg>
