<svg width="15" height="17" viewBox="0 0 15 17" fill="none" xmlns="http://www.w3.org/2000/svg">
<path d="M7.64333 9.08671C9.49835 9.08671 10.5223 7.36809 10.5223 5.24806C10.5223 3.12804 9.49835 1.40942 7.64333 1.40942C5.78831 1.40942 3.80469 3.12804 3.80469 5.24806C3.80469 7.36809 5.78831 9.08671 7.64333 9.08671Z" stroke="#787878" stroke-width="1.46627"/>
<path d="M10.5223 10.0464V10.0464C11.0444 10.0465 12.0503 10.6577 12.4416 11.006C12.833 11.3543 13.3366 11.4436 13.4013 11.9657V13.885C13.4264 14.0876 13.4611 14.6496 13.4013 14.8447C13.3415 15.0397 13.5354 14.6917 13.4013 14.8447C13.2672 14.9977 12.6263 15.7204 12.4416 15.8043C12.257 15.8883 12.6442 15.8044 12.4416 15.8043H1.88537C1.68282 15.8044 2.07002 15.8883 1.88537 15.8043C1.70073 15.7204 1.05978 14.9977 0.92571 14.8447C0.791644 14.6917 0.985474 15.0397 0.92571 14.8447C0.865947 14.6496 0.900594 14.0876 0.92571 13.885V11.9657C0.990482 11.4433 1.49371 11.3544 1.88537 11.006C2.27703 10.6577 3.28234 10.0462 3.80469 10.0464V10.0464" stroke="#787878" stroke-width="1.46627" stroke-linecap="round" stroke-linejoin="round"/>
</svg>
